<?xml version="1.0" encoding="UTF-8" standalone="no"?>
<svg
   xmlns:dc="http://purl.org/dc/elements/1.1/"
   xmlns:cc="http://creativecommons.org/ns#"
   xmlns:rdf="http://www.w3.org/1999/02/22-rdf-syntax-ns#"
   xmlns:svg="http://www.w3.org/2000/svg"
   xmlns="http://www.w3.org/2000/svg"
   viewBox="0 0 229.33333 228"
   height="228"
   width="229.33333"
   xml:space="preserve"
   id="svg2"
   version="1.1"><metadata
     id="metadata8"><rdf:RDF><cc:Work
         rdf:about=""><dc:format>image/svg+xml</dc:format><dc:type
           rdf:resource="http://purl.org/dc/dcmitype/StillImage" /></cc:Work></rdf:RDF></metadata><defs
     id="defs6" /><g
     transform="matrix(1.3333333,0,0,-1.3333333,0,228)"
     id="g10"><g
       transform="scale(0.1)"
       id="g12"><path
         id="path14"
         style="fill:#e22526;fill-opacity:1;fill-rule:nonzero;stroke:none"
         d="M 862.5,1709.45 C 390.605,1709.45 8.04688,1326.89 8.04688,855 8.04688,383.105 390.605,0.550781 862.5,0.550781 c 471.89,0 854.45,382.554219 854.45,854.449219 0,471.89 -382.56,854.45 -854.45,854.45" /><path
         id="path16"
         style="fill:#ffffff;fill-opacity:1;fill-rule:nonzero;stroke:none"
         d="m 1476.72,855 c 0,339.22 -275,614.22 -614.22,614.22 -339.219,0 -614.223,-275 -614.223,-614.22 0,-339.223 275.004,-614.223 614.223,-614.223 339.22,0 614.22,275 614.22,614.223" /></g></g></svg>