<?xml version="1.0" encoding="UTF-8" standalone="no"?>
<svg
   xmlns:dc="http://purl.org/dc/elements/1.1/"
   xmlns:cc="http://creativecommons.org/ns#"
   xmlns:rdf="http://www.w3.org/1999/02/22-rdf-syntax-ns#"
   xmlns:svg="http://www.w3.org/2000/svg"
   xmlns="http://www.w3.org/2000/svg"
   viewBox="0 0 261.33334 260"
   height="260"
   width="261.33334"
   xml:space="preserve"
   id="svg2"
   version="1.1"><metadata
     id="metadata8"><rdf:RDF><cc:Work
         rdf:about=""><dc:format>image/svg+xml</dc:format><dc:type
           rdf:resource="http://purl.org/dc/dcmitype/StillImage" /></cc:Work></rdf:RDF></metadata><defs
     id="defs6" /><g
     transform="matrix(1.3333333,0,0,-1.3333333,0,260)"
     id="g10"><g
       transform="scale(0.1)"
       id="g12"><path
         id="path14"
         style="fill:#edae15;fill-opacity:1;fill-rule:nonzero;stroke:none"
         d="m 982.469,0.449219 c 12.527,0.054687 24.761,3.503911 35.481,9.980481 10.15,6.1289 18.39,12.8359 26.71,21.2734 l 882.09,880.0939 c 16.88,16.773 31.36,37.168 31.27,62.191 -0.05,12.86 -3.64,25.649 -10.02,36.782 -5.93,10.36 -12.75,19.04 -21.24,27.43 l -880.1,880.1 c -9.18,9.33 -19.02,16.87 -30.64,22.93 -10.89,5.66 -21.286,8.24 -33.551,8.32 -25.098,-0.03 -46.625,-13.45 -64.203,-31.26 L 38.1641,1038.19 C 28.8359,1029.02 21.293,1019.17 15.2266,1007.55 9.56641,996.668 6.99219,986.266 6.91016,973.996 6.89453,961.578 10.4844,949.121 16.8906,938.512 23.0078,928.387 29.7383,920.094 38.1641,911.809 L 918.27,31.7031 C 927.445,22.375 937.293,14.832 948.906,8.76563 959.797,3.10547 970.199,0.53125 982.469,0.449219" /><path
         id="path16"
         style="fill:#231f20;fill-opacity:1;fill-rule:nonzero;stroke:none"
         d="m 1908.64,927.891 c 14.04,16.035 22.06,30.07 22.06,46.109 0,16.035 -8.02,30.07 -22.06,46.11 l -880.07,880.07 c -16.03,14.03 -30.07,22.05 -46.105,22.05 -16.039,0 -30.07,-8.02 -46.11,-22.05 L 56.2813,1020.11 C 42.25,1004.07 34.2305,990.035 34.2305,974 c 0,-16.039 8.0195,-30.074 22.0508,-46.109 L 936.355,47.8164 c 16.04,-14.0351 30.071,-22.0508 46.11,-22.0508 16.035,0 30.075,8.0157 46.105,22.0508 z m -24.05,68.16 c 8.02,-8.02 12.03,-14.035 12.03,-22.051 0,-8.02 -4.01,-14.035 -12.03,-22.055 L 1004.52,71.875 c -8.024,-8.0195 -14.036,-12.0312 -22.055,-12.0312 -8.02,0 -14.035,4.0117 -22.051,12.0312 L 80.3398,951.945 c -8.0195,8.02 -12.0273,14.035 -12.0273,22.055 0,8.016 4.0078,14.031 12.0273,22.051 L 960.414,1876.12 c 8.016,8.02 14.031,12.03 22.051,12.03 8.019,0 14.031,-4.01 22.055,-12.03 l 880.07,-880.069" /><path
         id="path18"
         style="fill:#231f20;fill-opacity:1;fill-rule:nonzero;stroke:none"
         d="m 778.91,917.863 c 20.047,-14.031 50.117,-14.031 66.156,6.016 10.024,14.035 14.036,30.07 8.02,48.113 l -32.074,96.228 H 1113.7 c 36.09,0 46.11,-22.05 46.11,-58.14 V 508.902 h 220.52 v 617.458 c 0,100.23 -62.15,162.38 -162.38,162.38 H 821.012 l 32.074,96.22 c 6.016,18.05 2.004,34.09 -8.02,48.12 -16.039,20.05 -46.109,20.05 -66.156,6.01 L 381.977,1178.48 778.91,917.863" /></g></g></svg>