<?xml version="1.0" encoding="UTF-8" standalone="no"?>
<svg
   xmlns:dc="http://purl.org/dc/elements/1.1/"
   xmlns:cc="http://creativecommons.org/ns#"
   xmlns:rdf="http://www.w3.org/1999/02/22-rdf-syntax-ns#"
   xmlns:svg="http://www.w3.org/2000/svg"
   xmlns="http://www.w3.org/2000/svg"
   viewBox="0 0 236 236"
   height="236"
   width="236"
   xml:space="preserve"
   id="svg2"
   version="1.1"><metadata
     id="metadata8"><rdf:RDF><cc:Work
         rdf:about=""><dc:format>image/svg+xml</dc:format><dc:type
           rdf:resource="http://purl.org/dc/dcmitype/StillImage" /></cc:Work></rdf:RDF></metadata><defs
     id="defs6" /><g
     transform="matrix(1.3333333,0,0,-1.3333333,0,236)"
     id="g10"><g
       transform="scale(0.1)"
       id="g12"><path
         id="path14"
         style="fill:#ffffff;fill-opacity:1;fill-rule:nonzero;stroke:none"
         d="m 1667.59,4.03125 c 59.7,0 94.07,36.18355 94.07,92.25785 V 1673.71 c 0,56.08 -34.37,92.26 -94.07,92.26 H 97.4063 c -59.6915,0 -94.06255,-36.18 -94.06255,-92.26 V 96.2891 C 3.34375,40.2148 37.7148,4.03125 97.4063,4.03125 H 1667.59" /><path
         id="path16"
         style="fill:none;stroke:#231f20;stroke-width:0.03;stroke-linecap:butt;stroke-linejoin:miter;stroke-miterlimit:4;stroke-dasharray:none;stroke-opacity:1"
         d="m 1667.59,4.03125 c 59.7,0 94.07,36.18355 94.07,92.25785 V 1673.71 c 0,56.08 -34.37,92.26 -94.07,92.26 H 97.4063 c -59.6915,0 -94.06255,-36.18 -94.06255,-92.26 V 96.2891 C 3.34375,40.2148 37.7148,4.03125 97.4063,4.03125 Z" /><path
         id="path18"
         style="fill:#231f20;fill-opacity:1;fill-rule:nonzero;stroke:none"
         d="m 1667.59,43.8281 c 32.56,0 54.27,19.9024 54.27,52.461 V 1673.71 c 0,32.56 -21.71,52.46 -54.27,52.46 H 97.4063 c -32.5586,0 -54.2657,-19.9 -54.2657,-52.46 V 96.2891 c 0,-32.5586 21.7071,-52.461 54.2657,-52.461 z M 1685.68,1673.71 V 96.2891 c 0,-10.8516 -7.23,-16.2774 -18.09,-16.2774 H 97.4063 c -10.8516,0 -18.086,5.4258 -18.086,16.2774 V 1673.71 c 0,10.85 7.2344,16.28 18.086,16.28 H 1667.59 c 10.86,0 18.09,-5.43 18.09,-16.28" /><path
         id="path20"
         style="fill:#e22526;fill-opacity:1;fill-rule:nonzero;stroke:none"
         d="m 882.5,146.941 c 408.82,0 738.06,329.231 738.06,738.059 0,408.83 -329.24,738.06 -738.06,738.06 -408.828,0 -738.059,-329.23 -738.059,-738.06 0,-408.828 329.231,-738.059 738.059,-738.059 z m 0,1363.959 c 343.7,0 624.09,-280.39 624.09,-624.091 0,-162.809 -52.46,-284.012 -139.29,-392.547 L 491.762,1373.42 c 106.73,85.02 242.402,137.48 390.738,137.48 z M 394.078,1275.74 c 0,0 875.542,-875.545 875.542,-877.349 -104.92,-85.028 -240.6,-135.676 -387.12,-135.676 -343.707,0 -624.094,280.39 -624.094,624.094 0,161.001 50.653,280.391 135.672,388.931" /><path
         id="path22"
         style="fill:#231f20;fill-opacity:1;fill-rule:nonzero;stroke:none"
         d="m 583.84,1281.92 141.363,-140.8 c 33.457,49 90.067,81.42 154.422,81.42 103.109,0 186.325,-83.22 186.325,-186.33 V 801.738 l 198.99,-198.191 v 432.663 c 0,211.66 -173.67,385.31 -385.315,385.31 -118.398,0 -224.914,-54.34 -295.785,-139.6" /><path
         id="path24"
         style="fill:#231f20;fill-opacity:1;fill-rule:nonzero;stroke:none"
         d="M 1238.94,430.09 1059.36,610.191 V 430.09 Z" /><path
         id="path26"
         style="fill:#231f20;fill-opacity:1;fill-rule:nonzero;stroke:none"
         d="M 686.711,983.922 507.012,1164.14 c -12.508,-38.03 -19.285,-78.64 -19.285,-120.82 V 819.016 l -104.922,32.562 c -21.707,9.043 -41.61,0 -52.461,-16.281 -9.043,-12.664 -9.043,-32.563 5.426,-52.461 L 587.219,422.852 838.66,782.836 c 9.567,13.148 12.809,26.301 11.301,37.363 l -34.262,34.364 c -7.469,1.312 -15.633,0.531 -24.066,-2.985 L 686.711,819.016 v 164.906" /></g></g></svg>