<?xml version="1.0" encoding="UTF-8" standalone="no"?>
<svg
   xmlns:dc="http://purl.org/dc/elements/1.1/"
   xmlns:cc="http://creativecommons.org/ns#"
   xmlns:rdf="http://www.w3.org/1999/02/22-rdf-syntax-ns#"
   xmlns:svg="http://www.w3.org/2000/svg"
   xmlns="http://www.w3.org/2000/svg"
   viewBox="0 0 236 236"
   height="236"
   width="236"
   xml:space="preserve"
   id="svg2"
   version="1.1"><metadata
     id="metadata8"><rdf:RDF><cc:Work
         rdf:about=""><dc:format>image/svg+xml</dc:format><dc:type
           rdf:resource="http://purl.org/dc/dcmitype/StillImage" /></cc:Work></rdf:RDF></metadata><defs
     id="defs6" /><g
     transform="matrix(1.3333333,0,0,-1.3333333,0,236)"
     id="g10"><g
       transform="scale(0.1)"
       id="g12"><path
         id="path14"
         style="fill:#ffffff;fill-opacity:1;fill-rule:nonzero;stroke:none"
         d="M 3.33984,96.2891 C 3.33984,40.2148 37.7148,4.03125 97.4063,4.03125 H 1667.59 c 59.7,0 94.07,36.18355 94.07,92.25785 V 1673.71 c 0,56.08 -34.37,92.26 -94.07,92.26 H 97.4063 c -59.6915,0 -94.06646,-36.18 -94.06646,-92.26 V 96.2891" /><path
         id="path16"
         style="fill:none;stroke:#231f20;stroke-width:0.03;stroke-linecap:butt;stroke-linejoin:miter;stroke-miterlimit:4;stroke-dasharray:none;stroke-opacity:1"
         d="M 3.33984,96.2891 C 3.33984,40.2148 37.7148,4.03125 97.4063,4.03125 H 1667.59 c 59.7,0 94.07,36.18355 94.07,92.25785 V 1673.71 c 0,56.08 -34.37,92.26 -94.07,92.26 H 97.4063 c -59.6915,0 -94.06646,-36.18 -94.06646,-92.26 z" /><path
         id="path18"
         style="fill:#231f20;fill-opacity:1;fill-rule:nonzero;stroke:none"
         d="M 43.1406,96.2891 V 1673.71 c 0,32.56 21.7071,52.46 54.2657,52.46 H 1667.59 c 32.56,0 54.27,-19.9 54.27,-52.46 V 96.2891 c 0,-32.5586 -21.71,-52.461 -54.27,-52.461 H 97.4063 c -32.5586,0 -54.2657,19.9024 -54.2657,52.461 z m 36.1797,0 c 0,-10.8516 7.2344,-16.2774 18.086,-16.2774 H 1667.59 c 10.86,0 18.09,5.4258 18.09,16.2774 V 1673.71 c 0,10.85 -7.23,16.28 -18.09,16.28 H 97.4063 c -10.8516,0 -18.086,-5.43 -18.086,-16.28 V 96.2891" /><path
         id="path20"
         style="fill:#231f20;fill-opacity:1;fill-rule:nonzero;stroke:none"
         d="M 1200.88,467.695 V 398.391 H 1001.89 V 667.25 c 79.55,-79.691 150.24,-150.562 198.99,-199.555 z m -609.517,805.495 92.153,64.05 c 19.898,14.47 39.797,14.47 52.457,5.43 16.285,-10.85 23.519,-30.76 16.285,-52.46 l -34.371,-104.92 h 336.463 c 79.6,0 146.53,-66.93 146.53,-146.53 v -377.6 l -198.99,199.813 v 83.722 c 0,21.711 -19.898,41.61 -41.609,41.61 h -83.207 z m 143.438,-338.534 17.457,-53.273 c 7.234,-21.711 0,-41.61 -16.285,-52.461 -12.66,-9.043 -32.559,-9.043 -52.457,5.43 L 321.719,1085.8 476.332,1193.25 c 63.477,-63.48 157.328,-157.37 258.469,-258.594" /><path
         id="path22"
         style="fill:#e22526;fill-opacity:1;fill-rule:nonzero;stroke:none"
         d="m 882.574,146.648 c -408.824,0 -738.058,329.235 -738.058,738.059 0,408.833 329.234,738.063 738.058,738.063 408.826,0 738.066,-329.23 738.066,-738.063 0,-408.824 -329.24,-738.059 -738.066,-738.059 z m 0,1363.962 c -148.332,0 -284.004,-52.46 -390.734,-137.48 l 875.54,-879.161 c 86.83,108.543 139.29,229.742 139.29,392.551 0,343.7 -280.39,624.09 -624.096,624.09 z M 394.156,1275.45 C 309.137,1166.91 258.48,1047.52 258.48,886.52 c 0,-343.707 280.391,-624.098 624.094,-624.098 146.526,0 282.196,50.652 387.126,135.676 0,1.808 -875.544,877.352 -875.544,877.352" /></g></g></svg>