<?xml version="1.0" encoding="UTF-8" standalone="no"?>
<svg
   xmlns:dc="http://purl.org/dc/elements/1.1/"
   xmlns:cc="http://creativecommons.org/ns#"
   xmlns:rdf="http://www.w3.org/1999/02/22-rdf-syntax-ns#"
   xmlns:svg="http://www.w3.org/2000/svg"
   xmlns="http://www.w3.org/2000/svg"
   viewBox="0 0 236 208"
   height="208"
   width="236"
   xml:space="preserve"
   id="svg2"
   version="1.1"><metadata
     id="metadata8"><rdf:RDF><cc:Work
         rdf:about=""><dc:format>image/svg+xml</dc:format><dc:type
           rdf:resource="http://purl.org/dc/dcmitype/StillImage" /></cc:Work></rdf:RDF></metadata><defs
     id="defs6" /><g
     transform="matrix(1.3333333,0,0,-1.3333333,0,208)"
     id="g10"><g
       transform="scale(0.1)"
       id="g12"><path
         id="path14"
         style="fill:#e22526;fill-opacity:1;fill-rule:nonzero;stroke:none"
         d="m 1691.24,3.87891 c 66.6,0 93.85,47.19139 60.55,104.87109 L 943.672,1508.44 c -33.301,57.69 -87.793,57.69 -121.098,0 L 14.4609,108.75 C -18.8398,51.0703 8.40625,3.87891 75.0078,3.87891 H 1691.24" /><path
         id="path16"
         style="fill:#ffffff;fill-opacity:1;fill-rule:nonzero;stroke:none"
         d="M 301.934,202.563 H 1464.31 L 883.125,1209.21 Z" /><path
         id="path18"
         style="fill:#231f20;fill-opacity:1;fill-rule:nonzero;stroke:none"
         d="M 679.598,686.645 729.93,560.051 c 0,0 -92.375,7.492 -172.985,11.863 L 428.32,349.133 h 236.625 v -92.129 c 0,-9.176 7.512,-16.688 16.688,-16.688 h 48.207 c 9.18,0 16.691,7.512 16.691,16.688 v 92.129 h 9.387 l 38.59,38.59 v 142.539 l -35.969,35.984 -58.98,145.442 c -0.496,0.078 -23.34,3.648 -57.461,7.714 l -15.032,-26.039 c 23.938,-2.711 42.661,-5.289 52.532,-6.718 z m 80.84,-177.473 v -63.039 c 0,-4.59 -3.754,-8.344 -8.344,-8.344 H 638.059 c -4.586,0 -7.532,3.664 -6.543,8.149 l 14.015,63.433 c 0.992,4.481 5.555,8.145 10.145,8.145 h 96.418 c 4.59,0 8.344,-3.754 8.344,-8.344" /><path
         id="path20"
         style="fill:#231f20;fill-opacity:1;fill-rule:nonzero;stroke:none"
         d="m 790.168,295.313 247.012,386.765 c 1.45,2.27 0.78,5.285 -1.49,6.735 -2.27,1.449 -5.28,0.781 -6.73,-1.485 L 781.949,300.563 c -1.449,-2.27 -0.785,-5.286 1.485,-6.735 2.269,-1.449 5.285,-0.785 6.734,1.485" /><path
         id="path22"
         style="fill:#231f20;fill-opacity:1;fill-rule:nonzero;stroke:none"
         d="m 802.125,282.621 353.755,286.012 c 2.09,1.691 2.42,4.762 0.72,6.859 -1.69,2.094 -4.76,2.418 -6.85,0.727 L 795.992,290.203 c -2.094,-1.691 -2.418,-4.762 -0.722,-6.855 1.691,-2.094 4.757,-2.422 6.855,-0.727" /><path
         id="path24"
         style="fill:#231f20;fill-opacity:1;fill-rule:nonzero;stroke:none"
         d="m 810.348,263.762 434.502,144.629 c 2.55,0.847 3.94,3.609 3.08,6.164 -0.84,2.554 -3.61,3.937 -6.16,3.086 L 807.27,273.012 c -2.555,-0.852 -3.938,-3.61 -3.086,-6.164 0.847,-2.555 3.609,-3.938 6.164,-3.086" /><path
         id="path26"
         style="fill:#231f20;fill-opacity:1;fill-rule:nonzero;stroke:none"
         d="m 810.434,245.484 h 459.996 c 2.69,0 4.87,2.184 4.87,4.875 0,2.692 -2.18,4.875 -4.87,4.875 H 810.434 c -2.692,0 -4.875,-2.183 -4.875,-4.875 0,-2.691 2.183,-4.875 4.875,-4.875" /><path
         id="path28"
         style="fill:#231f20;fill-opacity:1;fill-rule:nonzero;stroke:none"
         d="m 943.688,703.391 c -29.25,-2.438 -17.063,-43.875 -19.5,-63.379 12.187,0 26.816,2.437 36.566,12.187 v 9.75 c 4.875,7.317 12.187,14.629 9.75,24.379 -4.875,9.75 -14.668,18.074 -26.816,17.063" /><path
         id="path30"
         style="fill:#231f20;fill-opacity:1;fill-rule:nonzero;stroke:none"
         d="m 1097.26,688.766 c -12.19,-2.438 -17.07,-14.625 -14.63,-24.375 2.44,-2.442 2.44,-7.313 7.31,-9.75 7.32,-2.442 17.07,2.437 21.94,7.308 2.44,7.317 4.88,19.5 -2.43,26.817 -2.44,0 -6.85,1.066 -12.19,0" /><path
         id="path32"
         style="fill:#231f20;fill-opacity:1;fill-rule:nonzero;stroke:none"
         d="m 1072.88,586.387 h -9.75 c -7.31,-4.879 -9.75,-14.625 -4.88,-21.938 7.32,-9.75 21.94,0 26.82,7.313 v 9.746 c -2.44,4.879 -7.31,4.879 -12.19,4.879" /><path
         id="path34"
         style="fill:#231f20;fill-opacity:1;fill-rule:nonzero;stroke:none"
         d="m 975.379,527.883 c -14.625,-9.75 -39.004,-19.5 -31.691,-39 2.441,-7.317 17.066,0 24.375,2.437 12.191,4.875 14.628,19.5 17.066,31.688 0,2.437 -5.215,7.898 -9.75,4.875" /><path
         id="path36"
         style="fill:#231f20;fill-opacity:1;fill-rule:nonzero;stroke:none"
         d="m 1205.32,464.508 c -4.87,0 -7.31,7.308 -12.18,4.875 -7.32,-7.317 -19.5,-14.625 -14.63,-24.375 7.31,-17.067 31.69,-21.942 41.44,-4.879 7.31,12.187 0,24.379 -14.63,24.379" /><path
         id="path38"
         style="fill:#231f20;fill-opacity:1;fill-rule:nonzero;stroke:none"
         d="m 1089.94,488.883 c -14.62,-2.438 -29.25,-7.317 -29.25,-19.5 2.44,-17.067 31.69,-12.188 41.44,-2.438 7.32,4.871 4.65,24.743 -12.19,21.938" /><path
         id="path40"
         style="fill:#231f20;fill-opacity:1;fill-rule:nonzero;stroke:none"
         d="m 994.879,379.191 c 2.437,2.438 7.311,9.75 4.875,14.625 -9.75,4.875 -26.813,-4.875 -21.938,-17.062 2.438,-4.875 13.207,-1.418 17.063,2.437" /><path
         id="path42"
         style="fill:#231f20;fill-opacity:1;fill-rule:nonzero;stroke:none"
         d="m 1115.95,316.625 c -14.63,12.188 -34.13,9.754 -46.32,-4.875 -2.44,-4.875 -2.44,-12.187 0,-14.625 12.19,-7.312 26.82,-7.312 39,-2.437 4.88,2.437 9.75,12.187 12.19,19.5 0,2.437 -3,0.878 -4.87,2.437" /><path
         id="path44"
         style="fill:#231f20;fill-opacity:1;fill-rule:nonzero;stroke:none"
         d="m 1286.58,328.813 c -9.75,-2.434 -21.94,-4.875 -24.38,-14.625 -4.87,-7.313 0,-19.5 7.31,-19.5 19.5,-2.438 39.01,4.875 58.51,2.437 7.31,26.813 -20.03,37.043 -41.44,31.688" /></g></g></svg>