<?xml version="1.0" encoding="UTF-8" standalone="no"?>
<svg
   xmlns:dc="http://purl.org/dc/elements/1.1/"
   xmlns:cc="http://creativecommons.org/ns#"
   xmlns:rdf="http://www.w3.org/1999/02/22-rdf-syntax-ns#"
   xmlns:svg="http://www.w3.org/2000/svg"
   xmlns="http://www.w3.org/2000/svg"
   viewBox="0 0 238.66667 209.33333"
   height="209.33333"
   width="238.66667"
   xml:space="preserve"
   id="svg2"
   version="1.1"><metadata
     id="metadata8"><rdf:RDF><cc:Work
         rdf:about=""><dc:format>image/svg+xml</dc:format><dc:type
           rdf:resource="http://purl.org/dc/dcmitype/StillImage" /></cc:Work></rdf:RDF></metadata><defs
     id="defs6" /><g
     transform="matrix(1.3333333,0,0,-1.3333333,0,209.33333)"
     id="g10"><g
       transform="scale(0.1)"
       id="g12"><path
         id="path14"
         style="fill:#e22526;fill-opacity:1;fill-rule:nonzero;stroke:none"
         d="m 1705.69,8.97266 c 67.02,0 94.44,47.48824 60.93,105.53134 L 953.426,1522.98 c -33.508,58.05 -88.344,58.05 -121.856,0 L 18.3828,114.504 C -15.125,56.4609 12.2891,8.97266 79.3125,8.97266 H 1705.69" /><path
         id="path16"
         style="fill:#ffffff;fill-opacity:1;fill-rule:nonzero;stroke:none"
         d="M 307.66,208.906 H 1477.34 L 892.5,1221.88 Z" /><path
         id="path18"
         style="fill:#231f20;fill-opacity:1;fill-rule:nonzero;stroke:none"
         d="m 1272.73,489.723 c -0.08,0.035 -23.54,10.09 -23.54,10.09 0.01,0 -379.956,163.011 -379.956,163.011 l -2.359,1.016 -2.527,-0.461 -271.489,-48.613 V 260.098 h 48.75 v 314.093 l 131.336,-148.507 1.703,-1.926 2.489,-0.664 c 0,0 425.053,-113.348 425.043,-113.344 45.11,-12.102 86.32,29.258 102.19,74.313 16.99,48.218 4.57,89.695 -31.64,105.66 z m -537.984,4.91 -97.433,110.18 147.468,26.777 C 753.613,605.027 725.113,555.781 734.746,494.633 Z m 204.567,-97.125 c -30.594,8.156 -59.559,15.879 -84.125,22.433 -21.403,19.965 -32.844,60.868 -20.094,104.196 15.308,52.027 59.758,90.98 98.398,92.554 l 75.438,-32.367 c -36.383,2.215 -134.532,-83.375 -69.617,-186.816 z m 166.537,-44.41 c -21.6,5.757 -45.34,12.09 -69.87,18.629 -26.11,10.8 -43.41,53.05 -30.07,98.375 13.72,46.605 50.32,80.593 84.02,79.472 l 74.34,-31.89 c -34.74,-5.914 -108.89,-74.625 -58.42,-164.586 z m 182.43,36.632 c -13.33,-37.832 -46.48,-72.945 -81.68,-63.503 0,0.003 -2.16,0.578 -6.16,1.644 -21.99,12.176 -31.11,45.91 -20.34,82.527 12.15,41.258 45.09,71.059 74.78,68.415 l 11.05,-4.739 c 33.24,-14.656 32.83,-54.601 22.35,-84.344" /></g></g></svg>