<?xml version="1.0" encoding="UTF-8" standalone="no"?>
<svg
   xmlns:dc="http://purl.org/dc/elements/1.1/"
   xmlns:cc="http://creativecommons.org/ns#"
   xmlns:rdf="http://www.w3.org/1999/02/22-rdf-syntax-ns#"
   xmlns:svg="http://www.w3.org/2000/svg"
   xmlns="http://www.w3.org/2000/svg"
   viewBox="0 0 240 210.66667"
   height="210.66667"
   width="240"
   xml:space="preserve"
   id="svg2"
   version="1.1"><metadata
     id="metadata8"><rdf:RDF><cc:Work
         rdf:about=""><dc:format>image/svg+xml</dc:format><dc:type
           rdf:resource="http://purl.org/dc/dcmitype/StillImage" /></cc:Work></rdf:RDF></metadata><defs
     id="defs6" /><g
     transform="matrix(1.3333333,0,0,-1.3333333,0,210.66667)"
     id="g10"><g
       transform="scale(0.1)"
       id="g12"><path
         id="path14"
         style="fill:#e22526;fill-opacity:1;fill-rule:nonzero;stroke:none"
         d="m 1721.37,3.48438 c 67.49,0 95.09,47.82032 61.35,106.26962 L 963.855,1528.07 c -33.746,58.45 -88.964,58.45 -122.71,0 L 22.2773,109.754 C -11.4648,51.3047 16.1445,3.48438 83.6328,3.48438 H 1721.37" /><path
         id="path16"
         style="fill:#ffffff;fill-opacity:1;fill-rule:nonzero;stroke:none"
         d="M 313.578,204.816 H 1491.42 L 902.5,1224.86 Z" /><path
         id="path18"
         style="fill:#231f20;fill-opacity:1;fill-rule:nonzero;stroke:none"
         d="M 370.996,235.109 H 1400.75 L 634.105,692.137 Z" /><path
         id="path20"
         style="fill:#231f20;fill-opacity:1;fill-rule:nonzero;stroke:none"
         d="m 1076.42,709.156 -1.09,0.641 c -20.97,11.285 -40.49,2.488 -57.1,-25.926 -15.77,-26.961 -13.19,-49.648 7.14,-61.535 19.67,-11.5 41.78,-2.273 57.26,24.203 15.91,27.199 13.46,51.117 -6.21,62.617 z m -39.11,-35.793 c 11.22,19.188 18.97,24.43 28.66,19.418 l 0.65,-0.383 c 8.97,-5.238 8.44,-16.668 -2.21,-34.882 -10.22,-17.485 -20.06,-23.789 -29.24,-18.422 -9.19,5.371 -8.51,16.054 2.14,34.269 z m 50.7,-107.64 -1.09,0.64 c -20.97,11.285 -40.49,2.489 -57.1,-25.925 -15.76,-26.961 -13.19,-49.649 7.14,-61.536 19.67,-11.504 41.79,-2.273 57.26,24.2 15.91,27.203 13.46,51.117 -6.21,62.621 z M 1048.9,529.93 c 11.22,19.187 18.98,24.429 28.66,19.418 l 0.65,-0.383 c 8.97,-5.238 8.44,-16.668 -2.2,-34.883 -10.23,-17.488 -20.07,-23.789 -29.25,-18.422 -9.19,5.367 -8.51,16.055 2.14,34.27 z m 129.27,112.746 -15.97,9.344 -223.317,-106.286 16.484,-9.636 z M 791.551,748.902 c -32.129,-54.953 -22.785,-113.351 22.019,-139.55 45.938,-26.852 99.953,-6.25 133.563,51.238 33.937,58.051 25.699,113.16 -21.363,140.676 -46.782,27.347 -99.622,6.816 -134.219,-52.364 z m 122.398,-70.047 c -22.242,-38.042 -54.332,-52.179 -81.664,-36.203 -27.055,15.821 -29.957,49.657 -7.551,87.985 22.899,39.172 55.036,54.035 82.653,37.89 27.336,-15.98 29.793,-49.937 6.562,-89.672 z M 768.383,827.285 686.5,687.227 l 32.406,-18.946 109.727,187.684 -25.926,15.156 c -17.043,-7.808 -28.394,-9.113 -43.734,-4.305 l -14.825,-25.363 24.235,-14.168" /></g></g></svg>