<?xml version="1.0" encoding="UTF-8" standalone="no"?>
<svg
   xmlns:dc="http://purl.org/dc/elements/1.1/"
   xmlns:cc="http://creativecommons.org/ns#"
   xmlns:rdf="http://www.w3.org/1999/02/22-rdf-syntax-ns#"
   xmlns:svg="http://www.w3.org/2000/svg"
   xmlns="http://www.w3.org/2000/svg"
   viewBox="0 0 228 228"
   height="228"
   width="228"
   xml:space="preserve"
   id="svg2"
   version="1.1"><metadata
     id="metadata8"><rdf:RDF><cc:Work
         rdf:about=""><dc:format>image/svg+xml</dc:format><dc:type
           rdf:resource="http://purl.org/dc/dcmitype/StillImage" /></cc:Work></rdf:RDF></metadata><defs
     id="defs6" /><g
     transform="matrix(1.3333333,0,0,-1.3333333,0,228)"
     id="g10"><g
       transform="scale(0.1)"
       id="g12"><path
         id="path14"
         style="fill:#e22526;fill-opacity:1;fill-rule:nonzero;stroke:none"
         d="M 852.5,1705.45 C 382.816,1705.45 2.05078,1324.68 2.05078,855 2.05078,385.316 382.816,4.55078 852.5,4.55078 c 469.68,0 850.45,380.76522 850.45,850.44922 0,469.68 -380.77,850.45 -850.45,850.45" /><path
         id="path16"
         style="fill:#ffffff;fill-opacity:1;fill-rule:nonzero;stroke:none"
         d="m 1463.84,855 c 0,337.63 -273.71,611.35 -611.34,611.35 -337.633,0 -611.348,-273.72 -611.348,-611.35 0,-337.633 273.715,-611.348 611.348,-611.348 337.63,0 611.34,273.715 611.34,611.348" /><path
         id="path18"
         style="fill:#231f20;fill-opacity:1;fill-rule:nonzero;stroke:none"
         d="m 1296.62,813.625 c -33.62,33.621 -78.32,52.137 -125.87,52.137 -89.24,0 -163.34,-66.028 -176.051,-151.793 H 861.234 c -20.855,0 -28.078,7.41 -32.39,14.656 -1.301,2.18 -9.617,16.719 -22.031,38.469 L 855.809,876.555 796.07,979.176 H 677.637 l 24.386,60.024 c 3.571,4.39 14.883,16.74 29.415,16.74 h 65.058 v 52.41 h -65.058 c -45.168,0 -71.383,-37.36 -74.223,-41.62 L 572.906,861.504 c -12.011,2.644 -24.367,4.098 -36.945,4.215 l -2.301,35.683 c -28.836,-0.121 -56.324,-5.945 -81.394,-16.41 l 11.996,-33.59 C 400.809,824.16 356.25,761.074 356.25,687.762 c 0,-47.543 18.516,-92.242 52.133,-125.864 33.621,-33.621 78.32,-52.136 125.867,-52.136 47.543,0 92.242,18.515 125.859,52.136 33.621,33.622 52.141,78.321 52.141,125.864 0,47.543 -18.52,92.242 -52.141,125.863 -11.546,11.547 -24.421,21.266 -38.25,29.102 l 34.028,83.39 c 42.047,-73.871 123.277,-216.515 127.914,-224.304 15.676,-26.336 42.453,-40.262 77.433,-40.262 H 994.66 c 5.52,-37.594 22.87,-72.293 50.23,-99.653 33.62,-33.621 78.32,-52.136 125.86,-52.136 47.55,0 92.25,18.515 125.87,52.136 33.61,33.622 52.13,78.321 52.13,125.864 0,47.543 -18.52,92.242 -52.13,125.863 z M 623.047,776.563 c 23.719,-23.723 36.781,-55.258 36.781,-88.801 0,-69.246 -56.336,-125.582 -125.578,-125.582 -33.547,0 -65.082,13.062 -88.801,36.785 -23.722,23.719 -36.785,55.254 -36.785,88.797 0,33.543 13.063,65.078 36.785,88.801 23.719,23.714 55.254,36.781 88.801,36.781 6.234,0 12.398,-0.457 18.457,-1.344 L 505.926,697.352 c -5.469,-13.403 0.961,-28.7 14.363,-34.168 13.402,-5.469 28.699,0.961 34.172,14.363 l 47.359,116.074 c 7.578,-4.859 14.707,-10.543 21.227,-17.058 z M 1170.75,562.18 c -33.54,0 -65.08,13.062 -88.8,36.785 -17.41,17.41 -29.05,39.047 -34.03,62.586 h 124.49 c 14.48,0 26.22,11.734 26.22,26.211 0,14.472 -11.74,26.207 -26.22,26.207 h -124.49 c 4.98,23.543 16.62,45.179 34.03,62.594 23.72,23.714 55.26,36.781 88.8,36.781 33.55,0 65.08,-13.067 88.8,-36.781 23.72,-23.723 36.78,-55.258 36.78,-88.801 0,-69.246 -56.33,-125.582 -125.58,-125.582 z m 123.96,420.121 H 993.527 c -16.636,0 -33.882,-18.035 -24.5,-38.235 l 46.093,-73.714 c 7.3,-9.379 26.24,-4.805 28.27,-4.118 2.02,0.688 10.15,6.739 22.13,13.45 0,0 44.26,25.039 108.14,25.449 10.22,0.066 121.05,0 121.05,0 v 77.168" /></g></g></svg>