<?xml version="1.0" encoding="UTF-8" standalone="no"?>
<svg
   xmlns:dc="http://purl.org/dc/elements/1.1/"
   xmlns:cc="http://creativecommons.org/ns#"
   xmlns:rdf="http://www.w3.org/1999/02/22-rdf-syntax-ns#"
   xmlns:svg="http://www.w3.org/2000/svg"
   xmlns="http://www.w3.org/2000/svg"
   viewBox="0 0 262.66666 261.33334"
   height="261.33334"
   width="262.66666"
   xml:space="preserve"
   id="svg2"
   version="1.1"><metadata
     id="metadata8"><rdf:RDF><cc:Work
         rdf:about=""><dc:format>image/svg+xml</dc:format><dc:type
           rdf:resource="http://purl.org/dc/dcmitype/StillImage" /></cc:Work></rdf:RDF></metadata><defs
     id="defs6" /><g
     transform="matrix(1.3333333,0,0,-1.3333333,0,261.33333)"
     id="g10"><g
       transform="scale(0.1)"
       id="g12"><path
         id="path14"
         style="fill:#edae15;fill-opacity:1;fill-rule:nonzero;stroke:none"
         d="m 1932.88,916.723 c 22.05,22.05 32.07,42.097 32.07,64.148 0,22.049 -10.02,44.109 -32.07,66.159 L 1052.8,1927.1 c -22.05,22.05 -44.1,32.08 -66.152,32.08 -22.05,0 -44.105,-10.03 -66.156,-32.08 L 40.4219,1047.03 C 18.3672,1024.98 8.34375,1002.92 8.34375,980.871 c 0,-22.051 10.02345,-42.098 32.07815,-64.148 L 920.492,36.6484 c 22.051,-22.0507 44.106,-32.07418 66.156,-32.07418 22.052,0 42.102,10.02348 64.152,32.07418 l 882.08,880.0746" /><path
         id="path16"
         style="fill:#231f20;fill-opacity:1;fill-rule:nonzero;stroke:none"
         d="m 1912.83,934.766 c 14.03,16.035 22.05,30.07 22.05,46.105 0,16.039 -8.02,30.069 -22.05,46.109 l -880.07,880.07 c -16.04,14.04 -30.08,22.06 -46.112,22.06 -16.039,0 -30.07,-8.02 -46.109,-22.06 L 60.4688,1026.98 C 46.4336,1010.94 38.418,996.91 38.418,980.871 c 0,-16.035 8.0156,-30.07 22.0508,-46.105 L 940.539,54.6914 c 16.039,-14.0351 30.07,-22.0508 46.109,-22.0508 16.032,0 30.072,8.0157 46.112,22.0508 z m -24.06,68.154 c 8.02,-8.014 12.03,-14.029 12.03,-22.049 0,-8.019 -4.01,-14.031 -12.03,-22.051 L 1008.7,78.7461 c -8.02,-8.0195 -14.032,-12.0273 -22.052,-12.0273 -8.019,0 -14.031,4.0078 -22.05,12.0273 L 84.5234,958.82 c -8.0195,8.02 -12.0273,14.032 -12.0273,22.051 0,8.02 4.0078,14.035 12.0273,22.049 L 964.598,1883 c 8.019,8.02 14.031,12.02 22.05,12.02 8.02,0 14.032,-4 22.052,-12.02 l 880.07,-880.08" /><path
         id="path18"
         style="fill:#231f20;fill-opacity:1;fill-rule:nonzero;stroke:none"
         d="m 1526.45,858.77 c -23.75,41.402 -93.51,37.812 -167.36,34.011 -76.63,-3.941 -155.86,-8.015 -180.25,36.637 -26.14,47.836 24.96,88.972 89.26,133.952 l 28.76,21.23 c 46.6,25.18 81.61,70.66 91.29,126.9 16.74,97.27 -48.55,189.69 -145.82,206.42 -61.54,10.59 -121.02,-12.17 -160.74,-54.59 l -78.79,57.02 1.61,24.01 c 23.78,12.38 51.27,42.8 51.14,50.79 -0.09,6 -4.22,13.92 -12.18,11.8 l -127.386,-48.02 c -5.961,-2.1 -9.925,-4.16 -9.828,-10.16 0.094,-5.99 6.157,-9.89 12.149,-9.79 4.062,-3.94 32.254,-1.48 56.226,-1.1 l 0.196,-11.99 -242.856,-75.86 4.801,74.02 -22.203,13.64 5.867,7.84 63.617,21.01 -6.351,22.13 -73.543,-25.17 -27.457,-32.42 30.324,-21.49 -9.578,-158.11 c -2.137,0.44 -4.344,0.7 -6.508,1.07 -97.27,16.74 -189.688,-48.55 -206.422,-145.81 -16.734,-97.27 48.551,-189.689 145.816,-206.424 11.176,-1.921 22.274,-2.714 33.211,-2.546 -49.355,-36.379 -102.511,-85.786 -70.496,-144.383 31.028,-56.785 117.278,-52.348 200.692,-48.055 63.968,3.293 130.117,6.691 147.152,-22.996 23.68,-41.273 1.422,-101.285 -64.379,-173.555 l 16.27,-14.812 c 73.898,81.168 96.504,148.226 67.191,199.316 -23.758,41.406 -93.516,37.817 -167.363,34.02 -76.625,-3.946 -155.86,-8.02 -180.258,36.633 -26.137,47.835 24.965,88.964 89.266,133.953 l 27.367,13.543 c 54.703,22.718 96.984,72.007 107.769,134.696 14.645,85.11 -33.511,166.51 -110.937,196.74 l 1.414,29.14 c 0,0 223.418,-138.85 237.551,-149.44 l 0.195,-0.21 c -0.895,-3.98 -0.82,-8.24 0.434,-12.43 3.425,-11.47 14.433,-18.59 25.91,-17.53 l 19.037,-39.74 -9.46,-4.08 6.28,-17.89 37.74,14.6 -6.28,17.89 -12.25,-4.79 -19.69,41.32 c 5.79,5.91 8.42,14.57 6.35,23.08 l 0.61,1.94 47.03,23.08 c 26.02,-41.88 68.73,-73.11 121.14,-82.13 16.77,-2.88 33.39,-3.28 49.51,-1.54 -49.69,-36.46 -103.99,-86.191 -71.71,-145.269 31.02,-56.789 117.27,-52.351 200.69,-48.058 63.97,3.289 130.12,6.695 147.15,-22.993 23.68,-41.273 1.42,-101.289 -64.38,-173.558 l 16.27,-14.813 c 73.9,81.168 96.51,148.231 67.19,199.321 z m -720.016,220.65 c 1.285,-79.588 -62.2,-145.15 -141.786,-146.432 -79.589,-1.285 -145.152,62.196 -146.437,141.782 -1.281,79.59 62.199,145.16 141.789,146.44 11.801,0.19 23.297,-1.04 34.316,-3.54 l -1.765,-32.16 c -1.375,-34.97 -23.422,-72.09 -33.61,-88.99 -9.429,-1.63 -16.558,-9.87 -16.398,-19.74 0.176,-10.92 9.176,-19.64 20.102,-19.46 10.921,0.18 19.632,9.18 19.46,20.1 -0.042,2.51 -0.597,4.88 -1.488,7.08 15.723,21.07 38.688,59.42 39.977,97.46 l 1.683,26.25 c 48.907,-22.41 83.231,-71.41 84.157,-128.79 z m 156.191,112.23 9.563,4.37 -6.286,17.88 -37.738,-14.6 6.285,-17.88 11.926,4.19 12.406,-25.79 -230.164,144.19 1.774,14.02 242.855,75.86 1.563,-228.34 z m 73.285,80.45 c -6.03,-35.1 -0.92,-69.47 12.06,-99.98 l -50.782,-23.67 4.162,237.91 61.1,-47.55 c -12.85,-19.76 -22.29,-42.01 -26.54,-66.71 z m 29.51,-32.61 c -0.48,29.69 7.88,57.47 22.66,80.82 l 106.05,-71.95 -117.83,-62.15 c -6.73,16.46 -10.58,34.43 -10.88,53.28 z m 149.31,-144.57 c -52.65,-0.85 -99.29,26.1 -125.9,67.3 l 119.64,64.39 c 4.03,-1.93 8.06,-3.87 12.06,-3.81 11.98,0.2 21.81,10.35 21.62,22.34 -0.19,11.99 -10.35,21.82 -22.33,21.62 l -113.32,77.03 c 26.18,27.19 62.77,44.35 103.49,45.01 81.15,1.31 148,-63.42 149.31,-144.57 1.31,-81.15 -63.42,-148 -144.57,-149.31" /></g></g></svg>