<?xml version="1.0" encoding="UTF-8" standalone="no"?>
<svg
   xmlns:dc="http://purl.org/dc/elements/1.1/"
   xmlns:cc="http://creativecommons.org/ns#"
   xmlns:rdf="http://www.w3.org/1999/02/22-rdf-syntax-ns#"
   xmlns:svg="http://www.w3.org/2000/svg"
   xmlns="http://www.w3.org/2000/svg"
   viewBox="0 0 228 228"
   height="228"
   width="228"
   xml:space="preserve"
   id="svg2"
   version="1.1"><metadata
     id="metadata8"><rdf:RDF><cc:Work
         rdf:about=""><dc:format>image/svg+xml</dc:format><dc:type
           rdf:resource="http://purl.org/dc/dcmitype/StillImage" /></cc:Work></rdf:RDF></metadata><defs
     id="defs6" /><g
     transform="matrix(1.3333333,0,0,-1.3333333,0,228)"
     id="g10"><g
       transform="scale(0.1)"
       id="g12"><path
         id="path14"
         style="fill:#ffffff;fill-opacity:1;fill-rule:nonzero;stroke:none"
         d="m 1697.1,855 c 0,466.45 -378.15,844.6 -844.6,844.6 C 386.047,1699.6 7.89844,1321.45 7.89844,855 7.89844,388.547 386.047,10.3984 852.5,10.3984 c 466.45,0 844.6,378.1486 844.6,844.6016" /><path
         id="path16"
         style="fill:none;stroke:#231f20;stroke-width:10;stroke-linecap:butt;stroke-linejoin:miter;stroke-miterlimit:4;stroke-dasharray:none;stroke-opacity:1"
         d="m 1697.1,855 c 0,466.45 -378.15,844.6 -844.6,844.6 C 386.047,1699.6 7.89844,1321.45 7.89844,855 7.89844,388.547 386.047,10.3984 852.5,10.3984 c 466.45,0 844.6,378.1486 844.6,844.6016 z" /><path
         id="path18"
         style="fill:#287ac8;fill-opacity:1;fill-rule:nonzero;stroke:none"
         d="m 1652.51,855 c 0,441.82 -358.19,800.01 -800.01,800.01 C 410.676,1655.01 52.4961,1296.82 52.4961,855 52.4961,413.176 410.676,54.9922 852.5,54.9922 c 441.82,0 800.01,358.1838 800.01,800.0078 z m -720.467,199.57 0.012,-820 -157.387,-0.004 -0.012,820.004 c 0,0 -194.621,-40.64 -199.312,-40.64 -17.981,0 -32.555,14.58 -32.555,32.55 0,6.93 2.195,13.32 5.883,18.59 l 280.601,400.19 c 5.93,6.24 14.258,10.17 23.543,10.17 9.286,0 17.618,-3.93 23.543,-10.17 l 280.151,-399.91 c 0,0 5.7,-11.94 5.7,-18.87 0,-17.97 -14.57,-32.54 -32.55,-32.54 -4.7,0 -197.617,40.63 -197.617,40.63" /></g></g></svg>