<?xml version="1.0" encoding="UTF-8" standalone="no"?>
<svg
   xmlns:dc="http://purl.org/dc/elements/1.1/"
   xmlns:cc="http://creativecommons.org/ns#"
   xmlns:rdf="http://www.w3.org/1999/02/22-rdf-syntax-ns#"
   xmlns:svg="http://www.w3.org/2000/svg"
   xmlns="http://www.w3.org/2000/svg"
   viewBox="0 0 228 230.66667"
   height="230.66667"
   width="228"
   xml:space="preserve"
   id="svg2"
   version="1.1"><metadata
     id="metadata8"><rdf:RDF><cc:Work
         rdf:about=""><dc:format>image/svg+xml</dc:format><dc:type
           rdf:resource="http://purl.org/dc/dcmitype/StillImage" /></cc:Work></rdf:RDF></metadata><defs
     id="defs6" /><g
     transform="matrix(1.3333333,0,0,-1.3333333,0,230.66667)"
     id="g10"><g
       transform="scale(0.1)"
       id="g12"><path
         id="path14"
         style="fill:#ffffff;fill-opacity:1;fill-rule:nonzero;stroke:none"
         d="m 1627.57,14.543 c 41.12,0 74.77,33.6445 74.77,74.7656 V 1640.69 c 0,41.12 -33.65,74.77 -74.77,74.77 H 84.9258 c -41.1211,0 -74.7617,-33.65 -74.7617,-74.77 V 89.3086 c 0,-41.1211 33.6406,-74.7656 74.7617,-74.7656 H 1627.57" /><path
         id="path16"
         style="fill:none;stroke:#231f20;stroke-width:10;stroke-linecap:butt;stroke-linejoin:miter;stroke-miterlimit:4;stroke-dasharray:none;stroke-opacity:1"
         d="m 1627.57,14.543 c 41.12,0 74.77,33.6445 74.77,74.7656 V 1640.69 c 0,41.12 -33.65,74.77 -74.77,74.77 H 84.9258 c -41.1211,0 -74.7617,-33.65 -74.7617,-74.77 V 89.3086 c 0,-41.1211 33.6406,-74.7656 74.7617,-74.7656 z" /><path
         id="path18"
         style="fill:#287ac8;fill-opacity:1;fill-rule:nonzero;stroke:none"
         d="m 1618.23,61.2695 c 20.56,0 37.38,16.8243 37.38,37.3868 V 1631.34 c 0,20.56 -16.82,37.39 -37.38,37.39 H 94.2734 c -20.5586,0 -37.3828,-16.83 -37.3828,-37.39 V 98.6563 c 0,-20.5625 16.8242,-37.3868 37.3828,-37.3868 z M 448.395,699.379 V 1458.86 H 598.406 V 699.379 c 0,0 200.571,40.973 205.305,40.973 18.125,0 32.82,-14.696 32.82,-32.821 0,-6.98 -2.215,-13.426 -5.929,-18.742 L 547.672,285.281 c -5.981,-6.289 -14.375,-10.254 -23.738,-10.254 -9.364,0 -17.762,3.965 -23.739,10.254 L 217.723,688.512 c 0,0 -5.746,12.039 -5.746,19.019 0,18.125 14.695,32.821 32.82,32.821 4.734,0 203.598,-40.973 203.598,-40.973 z M 1260.36,1025.31 V 265.828 h -150.01 v 759.482 c 0,0 -200.573,-40.974 -205.303,-40.974 -18.129,0 -32.824,14.695 -32.824,32.824 0,6.98 2.215,13.42 5.929,18.74 l 282.928,403.51 c 5.98,6.29 14.38,10.25 23.74,10.25 9.36,0 17.77,-3.96 23.74,-10.25 l 282.47,-403.23 c 0,0 5.75,-12.04 5.75,-19.02 0,-18.129 -14.69,-32.824 -32.82,-32.824 -4.74,0 -203.6,40.974 -203.6,40.974" /></g></g></svg>